{
  "accessors": [
    {
      "name": "phoenix_lowpoly_1_0_positions",
      "componentType": 5126,
      "count": 10800,
      "min": [
        -6.273049831390381,
        -7.73291015625,
        -0.5279420018196106
      ],
      "max": [
        5.285759925842285,
        8.363455772399902,
        2.0135090351104736
      ],
      "type": "VEC3",
      "bufferView": 0,
      "byteOffset": 0
    },
    {
      "name": "phoenix_lowpoly_1_0_normals",
      "componentType": 5126,
      "count": 10800,
      "min": [
        -0.9999390840530396,
        -0.9980437159538269,
        -0.9985197186470032
      ],
      "max": [
        0.9999671578407288,
        0.9999021887779236,
        0.9999998807907104
      ],
      "type": "VEC3",
      "bufferView": 1,
      "byteOffset": 0
    },
    {
      "name": "phoenix_lowpoly_1_0_indices",
      "componentType": 5123,
      "count": 16200,
      "min": [
        0
      ],
      "max": [
        10799
      ],
      "type": "SCALAR",
      "bufferView": 2,
      "byteOffset": 0
    },
    {
      "name": "phoenix_lowpoly_1_1_positions",
      "componentType": 5126,
      "count": 3168,
      "min": [
        -6.066046237945557,
        -7.399291038513184,
        -0.3083750009536743
      ],
      "max": [
        5.010865211486816,
        8.248868942260742,
        1.6505680084228516
      ],
      "type": "VEC3",
      "bufferView": 0,
      "byteOffset": 129600
    },
    {
      "name": "phoenix_lowpoly_1_1_normals",
      "componentType": 5126,
      "count": 3168,
      "min": [
        -0.3422171175479889,
        -0.2629479467868805,
        0.9160375595092773
      ],
      "max": [
        0.3501018285751343,
        0.3765450716018677,
        0.9993796348571777
      ],
      "type": "VEC3",
      "bufferView": 1,
      "byteOffset": 129600
    },
    {
      "name": "phoenix_lowpoly_1_1_indices",
      "componentType": 5123,
      "count": 4752,
      "min": [
        0
      ],
      "max": [
        3167
      ],
      "type": "SCALAR",
      "bufferView": 2,
      "byteOffset": 32400
    }
  ],
  "asset": {
    "generator": "obj2gltf",
    "version": "2.0"
  },
  "buffers": [
    {
      "name": "phoenix_lowpoly",
      "byteLength": 377136,
      "uri": "data:application/octet-stream;base64,"
    }
  ],
  "bufferViews": [
    {
      "name": "bufferView_0",
      "buffer": 0,
      "byteLength": 167616,
      "byteOffset": 0,
      "byteStride": 12,
      "target": 34962
    },
    {
      "name": "bufferView_1",
      "buffer": 0,
      "byteLength": 167616,
      "byteOffset": 167616,
      "byteStride": 12,
      "target": 34962
    },
    {
      "name": "bufferView_2",
      "buffer": 0,
      "byteLength": 41904,
      "byteOffset": 335232,
      "target": 34963
    }
  ],
  "materials": [
    {
      "name": "phong1SG",
      "pbrMetallicRoughness": {
        "baseColorFactor": [
          0.87,
          0.87,
          0.87,
          1
        ],
        "metallicFactor": 0,
        "roughnessFactor": 0.982
      },
      "emissiveFactor": [
        0,
        0,
        0
      ],
      "alphaMode": "OPAQUE",
      "doubleSided": false
    },
    {
      "name": "phong2SG",
      "pbrMetallicRoughness": {
        "baseColorFactor": [
          0.17,
          0.17,
          0.17,
          1
        ],
        "metallicFactor": 0,
        "roughnessFactor": 0.982
      },
      "emissiveFactor": [
        0,
        0,
        0
      ],
      "alphaMode": "OPAQUE",
      "doubleSided": false
    }
  ],
  "meshes": [
    {
      "name": "phoenix_lowpoly_1",
      "primitives": [
        {
          "attributes": {
            "POSITION": 0,
            "NORMAL": 1
          },
          "indices": 2,
          "material": 0,
          "mode": 4
        },
        {
          "attributes": {
            "POSITION": 3,
            "NORMAL": 4
          },
          "indices": 5,
          "material": 1,
          "mode": 4
        }
      ]
    }
  ],
  "nodes": [
    {
      "name": "phoenix_lowpoly",
      "mesh": 0
    }
  ],
  "scene": 0,
  "scenes": [
    {
      "nodes": [
        0
      ]
    }
  ]
}
